<svg xmlns="http://www.w3.org/2000/svg" width="178" height="55" viewBox="0 0 178 55">
    <g fill="none" fill-rule="evenodd">
        <g fill="#FFC107">
            <path d="M4.954 36.28c-.02-.327-.034-.655-.034-.986v-9.256a8.231 8.231 0 0 1-4.556-3.553 19.26 19.26 0 0 0-.156 2.427v10.554c0 1.37.14 2.708.402 4a8.213 8.213 0 0 1 4.344-3.187M26.14 13.73v-.794c0-5.008-4.998-5.549-7.147-5.549s-7.147.54-7.147 5.549v.794c2.088-1.01 4.537-1.55 7.148-1.55 2.61 0 5.058.54 7.147 1.55M5.272 38.585a5.994 5.994 0 0 0-3.698 4.145c2.657 6.802 8.916 11.726 16.29 12.186v-4.82c-6.183-.522-11.25-5.276-12.592-11.511M4.989 23.628c.317-3.3 1.728-6.091 4.129-8.135.151-.129.307-.254.466-.376v-2.181c0-1.47.335-2.77.961-3.868-4.187 1.815-7.485 5.021-9.148 9.294a6.004 6.004 0 0 0 3.592 5.266"/>
            <path d="M18.993 5.095c3.532 0 6.247 1.114 7.834 3.075l1.564-5.555C22.956 4.843 22.209.217 18.995.217c-3.214 0-3.961 4.626-9.396 2.398l1.563 5.552c1.587-1.959 4.302-3.072 7.831-3.072M17.864 47.821V31.75c0-3.298-2.022-5.347-5.277-5.347H7.31c-.01 0-.02-.003-.031-.003l-.12-.003v8.898c0 6.535 4.707 11.92 10.705 12.527M33.036 36.28c.02-.327.034-.655.034-.986v-9.256a8.232 8.232 0 0 0 4.556-3.553c.1.785.156 1.593.156 2.427v10.554c0 1.37-.14 2.708-.402 4a8.214 8.214 0 0 0-4.344-3.187M32.718 38.585a5.993 5.993 0 0 1 3.698 4.145c-2.657 6.802-8.916 11.726-16.29 12.186v-4.82c6.183-.522 11.25-5.276 12.592-11.511M33.001 23.628c-.317-3.3-1.728-6.091-4.128-8.135-.152-.129-.308-.254-.467-.376v-2.181c0-1.47-.335-2.77-.961-3.868 4.188 1.815 7.485 5.021 9.148 9.294a6.004 6.004 0 0 1-3.592 5.266"/>
            <path d="M20.126 47.821V31.75c0-3.298 2.022-5.347 5.277-5.347h5.277c.01 0 .02-.003.031-.003l.12-.003v8.898c0 6.535-4.707 11.92-10.705 12.527M7.309 24.108l.024.002h5.254c2.868 0 5.136 1.244 6.408 3.323 1.272-2.08 3.54-3.323 6.408-3.323h5.251l.024-.002c.037 0 .073-.002.11-.003-.507-6.66-6.173-9.658-11.794-9.658-5.622 0-11.289 2.999-11.795 9.658.037.001.073.003.11.003"/>
        </g>
        <g fill="#FFFFFE">
            <path d="M149.167 32.657v-8.022c0-6.634-4.845-10.713-10.765-10.713-5.921 0-10.766 4.079-10.766 10.713v8.022c0 6.633 4.845 10.713 10.766 10.713 2.194 0 4.24-.562 5.946-1.605 1.683 1.29 3.648 2.052 6.378 2.052v-5.095c-1.153 0-2.016-.194-2.837-.692.814-1.517 1.278-3.323 1.278-5.373zm-16.46 0v-8.022c0-4.176 3.068-5.658 5.695-5.658 2.626 0 5.694 1.482 5.694 5.658v8.022c0 .424-.01 1.126-.144 1.65-.19-.66-.8-1.59-.972-1.817-.899-1.193-1.389-1.845-2.618-3.348l-3.923 3.233a118.463 118.463 0 0 1 3.02 3.888c.431.571.846 1.122 1.254 1.647-.75.28-1.55.405-2.311.405-2.627 0-5.694-1.482-5.694-5.658zM121.745 13.104c-4.758 6.335-7.56 9.71-8.543 13.772l-.014.05-.015-.05c-.983-4.064-3.784-7.436-8.543-13.772 0 0-3.053 2.464-3.96 3.165 5.504 7.024 9.947 11.906 9.951 20.472l-.003.014v6.316h5.14v-6.316l-.005-.014c.005-8.566 4.448-13.448 9.952-20.472-.907-.701-3.96-3.165-3.96-3.165M170.793 33.266a9.24 9.24 0 0 0 5.15-8.294v-1.52c0-5.103-4.122-9.231-9.205-9.231h-9.957v28.85h5.024V34.22h3.325c.554.715 1.063 1.389 1.556 2.043 3.304 4.386 5.69 7.555 11.267 7.555v-5.095c-2.903 0-3.971-1.225-7.16-5.456zm-8.988-14.237h4.933c2.443 0 4.103 1.971 4.103 4.424v1.519c0 2.452-1.66 4.464-4.103 4.464h-4.933V19.03zM67.005 14.22h-9.957v28.851h5.024V34.22h4.933c5.083 0 9.204-4.145 9.204-9.247v-1.52c0-5.103-4.12-9.231-9.204-9.231zm4.103 10.752c0 2.452-1.66 4.464-4.103 4.464h-4.933V19.03h4.933c2.443 0 4.103 1.971 4.103 4.424v1.519zM87.552 14.22L76.971 43.072h5.326l1.618-4.84h12.203l1.603 4.84h5.352l-10.58-28.85h-4.94zm-1.987 19.072l4.448-12.626 4.47 12.626h-8.918z"/>
        </g>
    </g>
</svg>
