<svg xmlns="http://www.w3.org/2000/svg" width="217" height="41" viewBox="0 0 217 41">
    <g fill="none" fill-rule="nonzero">
        <path fill="#50E3C2" d="M14.019 33.653c1.504 0 2.393-.764 2.393-2.257s-.889-2.257-2.393-2.257h-3.42V13.86h3.42c1.504 0 2.393-.764 2.393-2.257s-.889-2.257-2.393-2.257H2.393C.89 9.347 0 10.111 0 11.604s.889 2.257 2.393 2.257h3.42V29.14h-3.42C.89 29.139 0 29.903 0 31.396s.889 2.257 2.393 2.257H14.02zm20.344-3.993c-2.633 0-4.787-.73-6.462-2.188-1.676-1.458-2.496-3.437-2.496-5.972 0-2.535.82-4.514 2.496-5.972 1.675-1.459 3.829-2.188 6.462-2.188 2.564 0 4.82.73 6.77 2.188 2.77 2.083 5.778-1.285 2.872-3.611C41.645 9.972 38.432 9 34.363 9c-4.035 0-7.351 1.111-9.95 3.368-2.599 2.222-3.898 5.278-3.898 9.132s1.3 6.91 3.898 9.167C27.012 32.889 30.328 34 34.363 34c4.069 0 7.283-.972 9.642-2.917 2.872-2.43-.068-5.833-2.872-3.61-1.847 1.458-4.103 2.187-6.77 2.187zm18.84 1.007c-2.6-2.257-3.898-5.313-3.898-9.167s1.299-6.91 3.897-9.132C55.802 10.111 59.118 9 63.152 9c4.035 0 7.352 1.111 9.95 3.368C75.701 14.59 77 17.646 77 21.5s-1.3 6.91-3.898 9.167C70.504 32.889 67.187 34 63.152 34c-4.034 0-7.35-1.111-9.95-3.333zm3.487-15.14c-1.675 1.46-2.496 3.438-2.496 5.973 0 2.535.82 4.514 2.496 5.972 1.675 1.459 3.83 2.188 6.462 2.188 2.633 0 4.753-.73 6.428-2.188 1.676-1.458 2.53-3.437 2.53-5.972 0-2.535-.854-4.514-2.53-5.972-1.675-1.459-3.795-2.188-6.428-2.188-2.632 0-4.787.73-6.462 2.188z"/>
        <path fill="#FFF" d="M130 28.965v-14.93c0-2.049.309-3.334.96-3.854.652-.556 1.956-.834 3.843-.834h11.835c4.838 0 8.062 2.57 8.062 6.771 0 2.639-1.475 4.583-3.224 5.174v.07c2.367.798 3.91 2.846 3.91 5.45 0 4.41-3.362 6.84-8.576 6.84h-12.007c-1.887 0-3.19-.277-3.842-.798-.652-.555-.961-1.84-.961-3.889zm16.81-5.382h-12.007v4.514c0 .695-.034 1.042.686 1.042h11.32c2.402 0 3.603-.938 3.603-2.778s-1.2-2.778-3.602-2.778zm-.515-9.722H135.49c-.652 0-.686.208-.686 1.042v4.166h11.664c2.298 0 3.43-.868 3.43-2.604 0-1.736-1.2-2.604-3.602-2.604zm17.634 16.806c-2.608-2.257-3.911-5.313-3.911-9.167s1.303-6.91 3.91-9.132C166.537 10.111 169.865 9 173.913 9s7.375 1.111 9.983 3.368c2.607 2.222 3.91 5.278 3.91 9.132s-1.303 6.91-3.91 9.167C181.287 32.889 177.96 34 173.912 34c-4.048 0-7.376-1.111-9.983-3.333zm3.499-15.14c-1.681 1.46-2.504 3.438-2.504 5.973 0 2.535.823 4.514 2.504 5.972 1.68 1.459 3.842 2.188 6.484 2.188 2.641 0 4.768-.73 6.45-2.188 1.68-1.458 2.538-3.437 2.538-5.972 0-2.535-.858-4.514-2.539-5.972-1.68-1.459-3.808-2.188-6.45-2.188-2.64 0-4.802.73-6.483 2.188zm48.371-1.944c.79-.729 1.201-1.458 1.201-2.152C217 9.938 215.97 9 214.77 9c-.789 0-1.612.382-2.401 1.18l-8.44 8.056-8.439-8.055C194.701 9.38 193.878 9 193.09 9c-1.201 0-2.23.938-2.23 2.43 0 .695.412 1.424 1.2 2.153l8.406 7.917-8.405 7.917c-.79.729-1.201 1.458-1.201 2.152 0 1.494 1.029 2.431 2.23 2.431.789 0 1.612-.382 2.401-1.18l8.44-8.056 8.439 8.055c.789.8 1.612 1.181 2.401 1.181 1.2 0 2.23-.938 2.23-2.43 0-.695-.412-1.424-1.2-2.153l-8.406-7.917 8.405-7.917zM89.696 12.732v15.536L103 35.997l13.304-7.729V12.732L103 5.003l-13.304 7.729zM104.19.32l15.653 9.092A2.31 2.31 0 0 1 121 11.408v18.184c0 .82-.44 1.58-1.156 1.996L104.19 40.68a2.376 2.376 0 0 1-2.382 0l-15.653-9.092A2.31 2.31 0 0 1 85 29.592V11.408c0-.82.44-1.58 1.156-1.996L101.81.32a2.376 2.376 0 0 1 2.382 0z"/>
        <path fill="#FFF" d="M88.464 10.28a2.361 2.361 0 0 0-3.182.939 2.308 2.308 0 0 0 .95 3.145l15.652 8.357a2.371 2.371 0 0 0 2.232 0l15.651-8.357a2.308 2.308 0 0 0 .95-3.145 2.361 2.361 0 0 0-3.18-.94L103 18.04l-14.536-7.76z"/>
    </g>
</svg>
