<svg xmlns="http://www.w3.org/2000/svg" width="176" height="26" viewBox="0 0 176 26">
    <g fill="none" fill-rule="evenodd">
        <path fill="#004F8B" d="M19.468 21.125l2.808-16.25h4.492l-2.81 16.25h-4.49M40.558 5.57c-.91-.336-2.337-.695-4.119-.695-4.54 0-7.74 2.242-7.767 5.455-.025 2.375 2.284 3.7 4.027 4.491 1.789.81 2.39 1.327 2.382 2.05-.012 1.108-1.429 1.615-2.75 1.615-1.84 0-2.816-.25-4.325-.868l-.593-.263-.645 3.7c1.074.462 3.059.862 5.12.883 4.83 0 7.966-2.217 8.002-5.648.017-1.88-1.207-3.312-3.858-4.491-1.607-.765-2.59-1.275-2.58-2.05 0-.687.832-1.421 2.632-1.421a8.623 8.623 0 0 1 3.44.633l.41.19.624-3.582M52.313 4.875h-3.49c-1.082 0-1.892.29-2.367 1.348l-6.71 14.902h4.745s.776-2.004.951-2.444l5.786.007c.135.57.55 2.437.55 2.437h4.192l-3.657-16.25m-5.57 10.48c.373-.937 1.8-4.545 1.8-4.545-.028.043.37-.941.598-1.552l.306 1.402 1.046 4.695h-3.75M16.219 4.875l-4.503 11.1-.48-2.257c-.838-2.6-3.45-5.417-6.369-6.827l4.117 14.234 4.866-.005 7.24-16.245H16.22"/>
        <path fill="#ED9F2D" d="M7.598 4.875H.06L0 5.217c5.865 1.36 9.745 4.646 11.356 8.596l-1.639-7.55C9.434 5.221 8.613 4.91 7.598 4.874"/>
        <g fill-rule="nonzero">
            <path fill="#000" d="M86.35 25.87v-1.72c0-.66-.399-1.09-1.083-1.09-.342 0-.713.115-.97.488-.2-.316-.484-.488-.912-.488a.92.92 0 0 0-.799.402v-.345h-.599v2.754h.6v-1.52c0-.488.256-.717.655-.717.4 0 .6.258.6.717v1.52h.598v-1.52c0-.488.285-.717.656-.717.4 0 .599.258.599.717v1.52h.656zm8.87-2.753h-.97v-.831h-.598v.831h-.542v.545h.542v1.262c0 .631.256 1.004.94 1.004.257 0 .543-.086.742-.2l-.17-.517a.934.934 0 0 1-.514.144c-.285 0-.4-.173-.4-.46v-1.233h.97v-.545zm5.076-.057a.803.803 0 0 0-.712.402v-.345h-.6v2.754h.6v-1.549c0-.459.2-.717.57-.717.114 0 .257.029.37.057l.172-.573c-.114-.029-.285-.029-.4-.029zm-7.671.287c-.285-.2-.685-.287-1.112-.287-.685 0-1.141.344-1.141.89 0 .458.342.716.941.802l.285.029c.314.057.485.143.485.287 0 .2-.228.344-.627.344-.4 0-.713-.143-.913-.287l-.285.459c.314.23.741.344 1.17.344.798 0 1.254-.373 1.254-.889 0-.488-.37-.746-.941-.832l-.285-.028c-.257-.03-.457-.086-.457-.259 0-.2.2-.315.514-.315.342 0 .684.143.855.23l.257-.488zm15.913-.287a.803.803 0 0 0-.713.402v-.345h-.598v2.754h.598v-1.549c0-.459.2-.717.57-.717.115 0 .258.029.372.057l.17-.573c-.113-.029-.284-.029-.399-.029zm-7.643 1.434c0 .832.57 1.434 1.455 1.434.4 0 .684-.086.97-.315l-.286-.488a1.149 1.149 0 0 1-.713.258c-.484 0-.827-.344-.827-.889 0-.516.343-.86.827-.889.257 0 .485.086.713.258l.286-.487c-.286-.23-.57-.316-.97-.316-.884 0-1.455.602-1.455 1.434zm5.533 0v-1.377h-.599v.345c-.2-.259-.485-.402-.855-.402-.77 0-1.37.602-1.37 1.434s.6 1.434 1.37 1.434c.399 0 .684-.143.855-.401v.344h.6v-1.377zm-2.196 0c0-.487.314-.889.827-.889.485 0 .827.373.827.89 0 .487-.342.888-.827.888-.513-.028-.827-.401-.827-.889zm-7.158-1.434c-.799 0-1.37.574-1.37 1.434s.571 1.434 1.398 1.434c.4 0 .799-.115 1.113-.373l-.286-.43a1.358 1.358 0 0 1-.798.287c-.37 0-.742-.172-.827-.66h2.025v-.23c.028-.888-.485-1.462-1.255-1.462zm0 .516c.37 0 .627.23.684.66h-1.426c.057-.373.314-.66.742-.66zm14.858.918v-2.467h-.599v1.435c-.2-.259-.485-.402-.855-.402-.77 0-1.37.602-1.37 1.434s.6 1.434 1.37 1.434c.399 0 .684-.143.855-.401v.344h.6v-1.377zm-2.196 0c0-.487.314-.889.827-.889.485 0 .827.373.827.89 0 .487-.342.888-.827.888-.513-.028-.827-.401-.827-.889zm-20.02 0v-1.377h-.599v.345c-.2-.259-.485-.402-.855-.402-.77 0-1.37.602-1.37 1.434s.6 1.434 1.37 1.434c.399 0 .684-.143.855-.401v.344h.599v-1.377zm-2.225 0c0-.487.314-.889.828-.889.484 0 .827.373.827.89 0 .487-.343.888-.827.888-.514-.028-.828-.401-.828-.889z"/>
            <path fill="#FF5F00" d="M92.426 2.208h8.983v16.234h-8.983z"/>
            <path fill="#EB001B" d="M92.996 10.325c0-3.298 1.54-6.224 3.907-8.117A10.167 10.167 0 0 0 90.572 0c-5.676 0-10.267 4.618-10.267 10.325 0 5.708 4.591 10.326 10.267 10.326 2.395 0 4.591-.832 6.33-2.209a10.331 10.331 0 0 1-3.906-8.117z"/>
            <path fill="#F79E1B" d="M113.53 10.325c0 5.708-4.592 10.326-10.268 10.326-2.395 0-4.591-.832-6.33-2.209a10.288 10.288 0 0 0 3.906-8.117c0-3.298-1.54-6.224-3.907-8.117A10.167 10.167 0 0 1 103.262 0c5.676 0 10.267 4.646 10.267 10.325z"/>
        </g>
        <g>
            <path fill="#3498D8" d="M173.625.59h-33.25A2.376 2.376 0 0 0 138 2.956v20.09c0 1.3 1.069 2.364 2.375 2.364h33.25A2.376 2.376 0 0 0 176 23.045V2.955c0-1.3-1.069-2.364-2.375-2.364z"/>
            <path fill="#FFF" d="M145.57 12.838h1.897l-.948-2.25-.949 2.25zM172 8.563h-4.86L165.957 9.8l-1.067-1.238h-10.311l-.948 2.026-.949-2.025h-4.148v.9l-.474-.9h-3.555l-3.437 7.874h4.148l.474-1.237h1.185l.474 1.237h4.622v-.9l.356.9h2.37l.356-1.012v1.013h9.481l1.186-1.238 1.066 1.237h4.86l-3.082-3.937L172 8.562zm-14.34 6.75h-1.304v-4.388l-2.015 4.388h-1.185l-2.015-4.388v4.388h-2.726l-.474-1.238h-2.845l-.474 1.237h-1.54l2.488-5.624h2.015l2.252 5.287V9.688h2.252l1.778 3.824 1.659-3.825h2.252v5.626h-.119zm11.733 0h-1.778l-1.54-1.913-1.779 1.912h-5.333V9.689h5.452l1.66 1.8 1.777-1.8h1.66l-2.608 2.812 2.489 2.813zm-9.126-4.5v1.012h2.963v1.125h-2.963v1.125h3.318l1.54-1.688-1.421-1.575h-3.437z"/>
        </g>
    </g>
</svg>
