<svg xmlns="http://www.w3.org/2000/svg" xmlns:xlink="http://www.w3.org/1999/xlink" width="247" height="279" viewBox="0 0 247 279">
    <defs>
        <linearGradient id="c" x1="10.569%" x2="81.779%" y1="7.381%" y2="85.694%">
            <stop offset="0%" stop-color="#5FE2EC"/>
            <stop offset="100%" stop-color="#00BDCD"/>
        </linearGradient>
        <path id="b" d="M122.35 66c-19.716 12.146-39.43 19.02-59.147 23.088-14.985 46.062 1.701 102.629 59.148 122.546 57.446-19.917 74.132-76.484 59.148-122.546C161.782 85.02 142.068 78.146 122.35 66z"/>
        <filter id="a" width="193.2%" height="182.4%" x="-46.6%" y="-41.2%" filterUnits="objectBoundingBox">
            <feOffset in="SourceAlpha" result="shadowOffsetOuter1"/>
            <feGaussianBlur in="shadowOffsetOuter1" result="shadowBlurOuter1" stdDeviation="20"/>
            <feColorMatrix in="shadowBlurOuter1" values="0 0 0 0 0.407843137 0 0 0 0 0.784313725 0 0 0 0 0.815686275 0 0 0 0.501924819 0"/>
        </filter>
    </defs>
    <g fill="none" fill-rule="nonzero">
        <g transform="translate(1 1.13)">
            <use fill="#000" filter="url(#a)" xlink:href="#b"/>
            <use fill="url(#c)" fill-rule="evenodd" xlink:href="#b"/>
        </g>
        <path stroke="#00BDCD" stroke-width="2" d="M123.798 52.316c-23.645 14.566-47.287 22.81-70.933 27.689-17.97 55.24 2.04 123.076 70.933 146.962 68.893-23.886 88.903-91.723 70.933-146.962-23.645-4.88-47.287-13.123-70.933-27.689z" opacity=".7"/>
        <path stroke="#00BDCD" stroke-width="2" d="M123.798 36.65C95.911 53.829 68.028 63.55 40.14 69.306c-21.194 65.15 2.406 145.156 83.658 173.328 81.253-28.172 104.853-108.179 83.659-173.328-27.887-5.755-55.77-15.477-83.659-32.656z" opacity=".4"/>
        <path stroke="#00BDCD" stroke-width="2" d="M123.799 18.691c-32.751 20.174-65.496 31.592-98.247 38.35C.663 133.551 28.38 227.51 123.8 260.593c95.42-33.084 123.135-127.042 98.245-203.552-32.75-6.758-65.495-18.176-98.245-38.35z" opacity=".3"/>
        <path stroke="#00BDCD" stroke-width="2" d="M123.799 1.41C86.369 24.468 48.945 37.518 11.516 45.24c-28.445 87.441 3.23 194.822 112.283 232.633C232.85 240.063 264.526 132.68 236.08 45.24c-37.429-7.723-74.853-20.773-112.282-43.83z" opacity=".2"/>
        <g fill="#FFF">
            <path d="M163.12 113.632c-.49-.975-2.568-4.39-4.279-4.268-5.255 3.049-12.1 9.39-16.622 13.413-9.045 8.048-17.723 16.462-26.278 24.997l-17.112-14.876-6.478 6.34c9.412 9.39 19.556 19.51 27.868 29.997 10.633-17.437 27.989-42.434 42.9-55.603z"/>
        </g>
    </g>
</svg>
