<svg xmlns="http://www.w3.org/2000/svg" width="47" height="63" viewBox="0 0 47 63">
    <path fill="#00BDCD" fill-rule="nonzero" stroke="#000" d="M29.892 60.766c-2.074-.207-4.08-1.037-5.462-2.351-1.522-1.521-2.352-3.527-2.352-5.809 0-5.255 3.735-8.021 7.261-11.479.623-.76 1.383-1.452 2.213-2.212 5.048-5.117 3.457-11.133.622-14.59-3.18-4.012-9.404-6.64-15.42-2.836-4.08 2.558-6.846 5.117-9.75 7.952-1.037.9-2.075 2.005-3.32 3.043-1.452 1.452-3.733-1.038-2.143-2.42 1.176-1.107 2.213-2.075 3.32-3.112 2.903-2.835 5.739-5.463 10.233-8.298 3.389-2.075 7.192-2.835 11.064-2.006 3.389.83 6.57 2.766 8.782 5.602 2.213 2.766 3.458 5.946 3.458 9.127 0 3.665-1.66 7.054-4.495 9.889a33.38 33.38 0 0 1-2.213 2.213c-3.457 3.457-6.292 5.324-6.292 9.127 0 3.112 2.35 4.772 4.84 4.91 1.936.138 1.867 3.25-.346 3.25zM9.84 36.909c-1.729 1.937-3.527 3.804-5.463 5.74-1.383 1.383-3.803-.83-2.282-2.351 1.798-1.73 3.527-3.665 5.325-5.601 3.803-4.288 9.197-11.064 15.973-11.064 2.905 0 4.633 1.383 5.601 2.489 1.176 1.383 1.798 3.112 1.798 5.117 0 3.803-2.558 8.021-7.33 8.021h-.069c-2.282 0-4.08-.899-5.048-2.558a4.369 4.369 0 0 1 0-4.495c.9-1.66 2.628-2.904 4.91-2.558 2.351.484 1.798 3.665 0 3.319-1.106-.277-1.936.207-2.074.83-.485 1.66 1.037 2.212 2.281 2.212 2.905 0 4.011-2.835 4.011-4.771 0-4.01-3.388-4.287-4.08-4.287-4.84-.208-8.99 4.84-13.553 9.957zm28.213 17.91c.622-.622.622-1.729 0-2.351a1.628 1.628 0 0 0-2.282 0c-.484.346-.899.277-1.175.207a1.118 1.118 0 0 1-.761-1.106c0-1.175 1.245-2.282 3.388-4.01 3.458-3.043 8.367-7.123 8.367-16.043 0-3.389-.622-6.57-1.936-9.612-1.245-2.766-3.042-5.117-5.186-7.123-4.08-3.872-9.681-6.154-15.351-6.154-4.564 0-9.474 1.729-14.176 4.91-3.388 2.35-5.601 4.84-5.67 4.91a1.581 1.581 0 0 0 .207 2.281c.623.623 1.729.553 2.282-.207.07 0 7.883-8.644 17.357-8.644 4.84 0 9.612 1.936 13.138 5.186 2.766 2.559 6.016 7.123 6.016 14.314 0 3.389-.83 6.086-2.35 8.506-1.384 2.074-3.32 3.665-4.91 5.048-2.282 1.936-4.495 3.734-4.495 6.569 0 1.798 1.106 3.388 2.766 4.08.622.276 1.175.346 1.728.346 1.107.069 2.213-.346 3.043-1.107zM8.871 51.431c-.622 1.936-3.803 1.106-3.181-1.037 2.282-7.33 8.16-12.102 8.436-12.24 1.66-1.452 3.665 1.037 2.075 2.559-.07 0-5.394 4.356-7.33 10.718zm3.941-47.368c.07-.069 2.905-2.074 7.469-2.766 5.808-.968 12.654.415 17.84 4.357 1.729 1.244 0 4.01-1.798 2.627-4.91-3.319-10.165-4.564-15.213-3.734-3.18.553-5.6 1.66-6.5 2.282-1.66 1.107-3.596-1.59-1.798-2.766zm8.575 40.176s-4.771 4.91-3.527 10.373c.554 2.35 1.522 3.803 2.282 4.633 1.522 1.521-.899 3.734-2.35 2.282-1.038-1.107-2.49-3.112-3.113-6.293-1.52-7.192 4.219-13.138 4.495-13.415 1.383-1.383 3.803.899 2.213 2.42z"/>
</svg>
